<?xml version="1.0" encoding="UTF-8"?>
<svg width="32px" height="32px" viewBox="0 0 32 32" version="1.1" xmlns="http://www.w3.org/2000/svg" xmlns:xlink="http://www.w3.org/1999/xlink">
    <!-- Generator: Sketch 53.1 (72631) - https://sketchapp.com -->
    <title>return-back-active</title>
    <desc>Created with Sketch.</desc>
    <g id="return-back-active" stroke="none" stroke-width="1" fill="none" fill-rule="evenodd">
        <path d="M5.19628906,16.6054688 L11.1503906,10.6513672 L11.1503906,15.5009766 L20.7734375,15.5009766 C21.8398491,15.5009766 22.7475548,15.1264686 23.496582,14.3774414 C24.2456092,13.6284142 24.6201172,12.7249402 24.6201172,11.6669922 C24.6201172,10.6005806 24.2477251,9.6949907 23.5029297,8.95019531 C22.7581343,8.20539992 21.8525444,7.83300781 20.7861328,7.83300781 L18.6660156,7.83300781 L18.6660156,5.63671875 L20.7861328,5.63671875 C22.4534589,5.63671875 23.8753196,6.22492901 25.0517578,7.40136719 C26.228196,8.57780536 26.8164062,9.99966614 26.8164062,11.6669922 C26.8164062,13.3343182 26.2260801,14.756179 25.0454102,15.9326172 C23.8647402,17.1090554 22.4407635,17.6972656 20.7734375,17.6972656 L11.1503906,17.6972656 L11.1503906,22.5595703 L5.19628906,16.6054688 Z" id="↩" fill="#005DFF" fill-rule="nonzero"></path>
    </g>
</svg>